<?xml version="1.0" standalone="no"?>
<!DOCTYPE svg PUBLIC "-//W3C//DTD SVG 20010904//EN"
 "http://www.w3.org/TR/2001/REC-SVG-20010904/DTD/svg10.dtd">
<svg version="1.0" xmlns="http://www.w3.org/2000/svg"
 width="500.000000pt" height="500.000000pt" viewBox="0 0 500.000000 500.000000"
 preserveAspectRatio="xMidYMid meet">
<metadata>
Created by potrace 1.11, written by Peter Selinger 2001-2013
</metadata>
<g transform="translate(0.000000,500.000000) scale(0.100000,-0.100000)"
fill="#000000" stroke="none">
<path d="M2388 3420 l-3 -1572 -1080 785 -1080 785 -3 -882 c-1 -484 0 -886 2
-892 4 -11 2243 -1640 2252 -1638 10 2 2304 1669 2304 1674 0 3 -241 181 -535
394 -294 214 -535 392 -535 396 0 3 241 181 535 395 294 213 535 391 535 394
-1 7 -2364 1724 -2380 1729 -6 2 -11 -559 -12 -1568z m1180 520 c512 -371 931
-677 932 -680 1 -12 -931 -681 -944 -678 -8 2 -235 163 -505 358 l-490 355 0
688 -1 689 39 -29 c21 -15 457 -332 969 -703z m-2185 -1567 c535 -388 980
-713 990 -722 16 -16 17 -59 15 -698 l-3 -682 -995 723 -995 723 -3 687 c-1
491 1 685 9 681 6 -4 448 -324 982 -712z m1616 403 c226 -165 411 -302 411
-306 0 -6 -797 -590 -837 -614 -10 -6 -13 120 -13 614 0 522 2 620 14 613 7
-4 198 -143 425 -307z m1034 -752 c254 -184 463 -338 464 -342 2 -5 -1493
-1096 -1883 -1375 l-54 -39 2 688 3 688 490 357 c270 197 496 358 503 358 7 1
221 -150 475 -335z"/>
</g>
</svg>
