<?xml version="1.0" standalone="no"?><!DOCTYPE svg PUBLIC "-//W3C//DTD SVG 1.1//EN" "http://www.w3.org/Graphics/SVG/1.1/DTD/svg11.dtd"><svg width="100%" height="100%" viewBox="0 0 25 25" version="1.1" xmlns="http://www.w3.org/2000/svg" xmlns:xlink="http://www.w3.org/1999/xlink" xml:space="preserve" style="fill-rule:evenodd;clip-rule:evenodd;stroke-linejoin:round;stroke-miterlimit:1.41421;"><path d="M20.46,2.205l-14.998,0l-0.099,-0.004c-0.167,-0.024 -0.321,-0.069 -0.464,-0.161c-0.37,-0.237 -0.553,-0.695 -0.45,-1.122c0.04,-0.165 0.121,-0.304 0.225,-0.437c0.069,-0.072 0.069,-0.071 0.144,-0.136c0.071,-0.051 0.088,-0.067 0.166,-0.107c0.121,-0.062 0.246,-0.092 0.379,-0.111c5.919,-0.282 11.852,-0.005 17.779,-0.005l0.001,0c0.065,0 0.131,0.006 0.195,0.019c0.043,0.008 0.085,0.019 0.126,0.032c0.018,0.006 0.036,0.012 0.054,0.019c0.271,0.105 0.49,0.324 0.595,0.595c0.014,0.036 0.025,0.073 0.034,0.109c0.015,0.054 0.026,0.11 0.031,0.167l0.001,0.005l0,0.004c0.003,0.031 0.005,0.061 0.005,0.092c0.266,5.887 0,11.787 0,17.68c-0.005,0.088 -0.003,0.11 -0.019,0.197c-0.044,0.228 -0.165,0.438 -0.341,0.59c-0.387,0.335 -0.978,0.335 -1.364,0c-0.1,-0.087 -0.184,-0.192 -0.244,-0.31c-0.078,-0.151 -0.108,-0.309 -0.116,-0.477l0,-15.165l-20.322,20.321c-0.074,0.067 -0.09,0.087 -0.175,0.141c-0.159,0.102 -0.345,0.159 -0.533,0.164c-0.546,0.015 -1.022,-0.412 -1.067,-0.957c-0.009,-0.112 0.001,-0.226 0.028,-0.336c0.047,-0.189 0.146,-0.342 0.274,-0.485c6.745,-6.745 13.17,-13.829 20.155,-20.322Z" style="fill:#fefffe;"/></svg>