<?xml version="1.0" standalone="no"?><!DOCTYPE svg PUBLIC "-//W3C//DTD SVG 1.1//EN" "http://www.w3.org/Graphics/SVG/1.1/DTD/svg11.dtd"><svg width="100%" height="100%" viewBox="0 0 66 65" version="1.1" xmlns="http://www.w3.org/2000/svg" xmlns:xlink="http://www.w3.org/1999/xlink" xml:space="preserve" style="fill-rule:evenodd;clip-rule:evenodd;stroke-linejoin:round;stroke-miterlimit:1.41421;"><g id="in logo"><path d="M15.86,64.34l-14.315,0l0,-42.546l14.315,0c0,14.182 0,28.364 0,42.546ZM4.019,24.269l0,37.596l9.367,0l0,-37.596c-3.122,0 -6.245,0 -9.367,0ZM8.92,0.002c0.428,0.015 0.853,0.049 1.276,0.119c0.884,0.146 1.746,0.424 2.545,0.829c0.956,0.485 1.819,1.149 2.524,1.958c0.618,0.71 1.11,1.526 1.445,2.406c0.323,0.848 0.497,1.75 0.52,2.657c0.022,0.847 -0.085,1.696 -0.322,2.51c-0.172,0.589 -0.412,1.158 -0.713,1.693c-0.963,1.715 -2.544,3.038 -4.382,3.727c-0.993,0.372 -2.051,0.559 -3.111,0.559c-2.649,0 -5.251,-1.191 -6.919,-3.261c-0.341,-0.424 -0.641,-0.881 -0.892,-1.365c-0.287,-0.552 -0.509,-1.137 -0.659,-1.741c-0.189,-0.764 -0.263,-1.555 -0.22,-2.34c0.045,-0.841 0.227,-1.673 0.539,-2.456c0.351,-0.884 0.865,-1.7 1.502,-2.405c0.727,-0.806 1.61,-1.466 2.581,-1.947c0.873,-0.432 1.816,-0.721 2.781,-0.856c0.355,-0.05 0.712,-0.075 1.07,-0.087c0.217,-0.003 0.217,-0.003 0.435,0ZM8.543,2.476c-0.976,0.034 -1.932,0.252 -2.81,0.687c-0.693,0.343 -1.325,0.813 -1.844,1.387c-0.439,0.487 -0.796,1.05 -1.039,1.661c-0.212,0.534 -0.336,1.102 -0.367,1.676c-0.027,0.492 0.012,0.988 0.118,1.469c0.092,0.418 0.234,0.825 0.422,1.211c0.146,0.299 0.318,0.584 0.514,0.853c1.151,1.584 3.06,2.517 5.006,2.564c0.767,0.018 1.537,-0.097 2.262,-0.35c1.354,-0.471 2.529,-1.419 3.233,-2.672c0.208,-0.371 0.375,-0.765 0.493,-1.173c0.166,-0.569 0.24,-1.162 0.225,-1.755c-0.014,-0.58 -0.117,-1.159 -0.31,-1.707c-0.216,-0.614 -0.541,-1.186 -0.957,-1.687c-0.481,-0.579 -1.076,-1.06 -1.739,-1.416c-0.798,-0.428 -1.673,-0.66 -2.572,-0.733c-0.212,-0.013 -0.423,-0.017 -0.635,-0.015Z" style="fill:#fff;fill-rule:nonzero;"/><path d="M38.88,25.076c0.463,-0.438 0.946,-0.851 1.459,-1.228c1.55,-1.138 3.323,-1.973 5.185,-2.451c0.859,-0.221 1.738,-0.366 2.622,-0.427c0.834,-0.058 1.673,-0.04 2.506,0.019c1.378,0.098 2.751,0.335 4.07,0.751c1.679,0.53 3.262,1.355 4.623,2.475c0.704,0.58 1.346,1.234 1.916,1.946c0.334,0.417 0.643,0.854 0.927,1.306c1.884,2.998 2.63,6.573 2.8,10.069c0.027,0.541 0.036,1.082 0.039,1.624l0,25.18l-14.402,0c0,-7.61 0.069,-15.22 -0.002,-22.829c-0.044,-1.742 -0.408,-3.599 -1.631,-4.918c-0.21,-0.227 -0.443,-0.433 -0.695,-0.614c-1.316,-0.947 -3.009,-1.105 -4.577,-0.917c-1.268,0.152 -2.523,0.606 -3.401,1.569c-0.941,1.03 -1.328,2.444 -1.474,3.801c-0.025,0.236 -0.044,0.472 -0.056,0.709c-0.013,0.258 -0.017,0.515 -0.019,0.772l0,22.427l-14.401,0l0,-42.546l14.401,0l0,3.39c0.037,-0.036 0.073,-0.072 0.11,-0.108ZM45.339,32.528c0.897,0.048 1.781,0.196 2.627,0.505c0.568,0.208 1.111,0.482 1.612,0.822c0.391,0.265 0.756,0.57 1.088,0.907c1.127,1.149 1.82,2.645 2.157,4.207c0.196,0.909 0.268,1.833 0.277,2.762l0,20.134l9.452,0c0,-7.738 0.086,-15.476 -0.004,-23.214c-0.011,-0.573 -0.033,-1.146 -0.076,-1.718c-0.034,-0.462 -0.08,-0.924 -0.139,-1.384c-0.355,-2.74 -1.187,-5.506 -2.903,-7.714c-0.263,-0.338 -0.545,-0.661 -0.845,-0.966c-0.887,-0.901 -1.935,-1.633 -3.078,-2.172c-1.18,-0.557 -2.45,-0.908 -3.739,-1.099c-0.618,-0.092 -1.241,-0.147 -1.866,-0.172c-0.931,-0.037 -1.858,-0.001 -2.778,0.157c-2.742,0.471 -5.365,1.872 -7.196,3.979c-0.378,0.436 -0.715,0.901 -1.021,1.391l-0.097,0.163l-0.094,0.164l-0.809,1.487l-1.611,-0.41l0,-6.088l-9.453,0l0,37.596l9.453,0c0,-6.753 -0.053,-13.507 0.002,-20.26c0.017,-0.662 0.058,-1.322 0.156,-1.978c0.221,-1.488 0.712,-2.959 1.625,-4.169c0.215,-0.284 0.451,-0.551 0.706,-0.799c0.349,-0.337 0.734,-0.637 1.146,-0.893c0.581,-0.361 1.214,-0.635 1.869,-0.83c1.011,-0.302 2.062,-0.408 3.114,-0.416c0.213,0.002 0.212,0.002 0.425,0.008Z" style="fill:#fff;fill-rule:nonzero;"/></g></svg>