<?xml version="1.0" standalone="no"?><!DOCTYPE svg PUBLIC "-//W3C//DTD SVG 1.1//EN" "http://www.w3.org/Graphics/SVG/1.1/DTD/svg11.dtd"><svg width="100%" height="100%" viewBox="0 0 80 65" version="1.1" xmlns="http://www.w3.org/2000/svg" xmlns:xlink="http://www.w3.org/1999/xlink" xml:space="preserve" style="fill-rule:evenodd;clip-rule:evenodd;stroke-linejoin:round;stroke-miterlimit:1.41421;"><path d="M54.184,0.001c1.258,0.025 2.508,0.171 3.733,0.465c2.013,0.484 3.93,1.343 5.632,2.522c0.753,0.521 1.456,1.105 2.118,1.737l0.074,0.073l9.648,-2.435l0.185,-0.032c0.063,-0.001 0.126,-0.007 0.189,-0.003c0.188,0.011 0.374,0.065 0.538,0.158c0.506,0.287 0.747,0.909 0.567,1.462c-0.062,0.188 -0.166,0.33 -0.291,0.479l-4.976,5.096l6.114,-0.482l0.187,-0.001c0.191,0.029 0.361,0.065 0.53,0.163c0.498,0.288 0.735,0.902 0.559,1.449c-0.057,0.178 -0.155,0.342 -0.284,0.477c-0.043,0.045 -0.092,0.083 -0.138,0.125l-7.74,5.973l0.037,1.415c-0.003,0.506 -0.003,0.505 -0.012,1.011c-0.025,0.839 -0.064,1.676 -0.133,2.513c-0.139,1.697 -0.376,3.385 -0.704,5.056c-1.925,9.804 -6.98,19.024 -14.39,25.75c-1.523,1.383 -3.143,2.658 -4.846,3.811c-2.643,1.79 -5.486,3.282 -8.46,4.443c-2.869,1.12 -5.856,1.931 -8.893,2.44c-2.161,0.363 -4.348,0.574 -6.539,0.646c-2.525,0.082 -5.055,-0.024 -7.561,-0.347c-3.366,-0.433 -6.682,-1.245 -9.867,-2.418c-2.867,-1.055 -5.626,-2.401 -8.225,-4.006c-0.113,-0.069 -0.225,-0.139 -0.336,-0.209c-0.275,-0.174 -0.548,-0.325 -0.722,-0.609c-0.339,-0.555 -0.179,-1.301 0.359,-1.668c0.156,-0.106 0.335,-0.175 0.522,-0.202c0.062,-0.009 0.125,-0.008 0.188,-0.012c0.396,0.004 0.793,0.004 1.19,0.001c3.802,-0.063 7.599,-0.562 11.269,-1.571c2.839,-0.782 5.6,-1.869 8.12,-3.403l0.015,-0.009c-0.382,-0.179 -0.759,-0.367 -1.136,-0.557c-0.364,-0.189 -0.726,-0.381 -1.086,-0.578c-2.11,-1.178 -4.107,-2.543 -5.932,-4.129c-3.006,-2.612 -5.502,-5.777 -7.354,-9.302c-1.042,-1.983 -1.88,-4.07 -2.519,-6.216c-0.938,-3.146 -1.452,-6.415 -1.573,-9.694c-0.093,-2.509 0.042,-5.031 0.431,-7.513c0.304,-1.937 0.758,-3.865 1.46,-5.699c0.1,-0.261 0.206,-0.52 0.317,-0.776c0.106,-0.242 0.217,-0.483 0.335,-0.72c0.147,-0.296 0.305,-0.588 0.475,-0.872c0.109,-0.181 0.218,-0.379 0.36,-0.537c0.261,-0.291 0.654,-0.444 1.043,-0.405c0.128,0.012 0.254,0.045 0.373,0.097c0.186,0.081 0.319,0.202 0.459,0.346c0.357,0.432 0.356,0.431 0.718,0.858c0.608,0.699 1.228,1.385 1.875,2.048c1.423,1.457 2.948,2.814 4.561,4.058c4.376,3.373 9.393,5.895 14.715,7.381c2.51,0.7 5.078,1.161 7.672,1.405l0.293,0.026l0.206,0.017c0.019,-0.413 0.042,-0.825 0.07,-1.237c0.045,-0.598 0.1,-1.195 0.174,-1.79c0.488,-3.942 1.703,-7.95 4.319,-11.021c0.405,-0.476 0.841,-0.925 1.306,-1.343c0.654,-0.588 1.364,-1.112 2.118,-1.563c0.978,-0.585 2.028,-1.045 3.116,-1.383c1.586,-0.492 3.236,-0.714 4.893,-0.757c0.218,-0.003 0.436,-0.004 0.654,-0.002ZM53.768,2.475c-1.488,0.022 -2.973,0.206 -4.397,0.649c-0.953,0.296 -1.871,0.704 -2.721,1.229c-0.517,0.32 -1.008,0.682 -1.467,1.082c-0.343,0.299 -0.667,0.619 -0.972,0.956c-2.043,2.262 -3.135,5.222 -3.696,8.179c-0.097,0.51 -0.179,1.023 -0.247,1.537c-0.085,0.642 -0.149,1.286 -0.196,1.931c-0.058,0.797 -0.085,1.595 -0.096,2.394l-0.016,0.18c-0.037,0.156 -0.038,0.199 -0.109,0.344c-0.16,0.329 -0.464,0.574 -0.819,0.661c-0.157,0.038 -0.199,0.03 -0.36,0.033c-0.414,-0.022 -0.828,-0.048 -1.242,-0.079c-2.852,-0.23 -5.678,-0.708 -8.441,-1.459c-5.546,-1.507 -10.789,-4.078 -15.385,-7.529c-1.721,-1.292 -3.352,-2.706 -4.875,-4.227c-0.676,-0.675 -1.325,-1.373 -1.961,-2.085c-0.082,0.184 -0.158,0.368 -0.234,0.554c-0.602,1.539 -1.017,3.141 -1.306,4.767c-0.315,1.767 -0.485,3.56 -0.528,5.354c-0.162,6.603 1.361,13.337 4.844,18.989c0.742,1.204 1.569,2.355 2.476,3.44c2.084,2.495 4.585,4.622 7.345,6.333c1.739,1.078 3.574,1.983 5.466,2.757l0.165,0.083c0.157,0.111 0.292,0.219 0.399,0.381c0.241,0.366 0.269,0.845 0.073,1.237c-0.088,0.174 -0.209,0.297 -0.351,0.425c-0.268,0.206 -0.267,0.205 -0.537,0.406c-0.474,0.34 -0.955,0.668 -1.451,0.975c-2.026,1.253 -4.223,2.219 -6.476,2.983c-3.504,1.188 -7.157,1.881 -10.839,2.202l-0.191,0.015c3.458,1.761 7.148,3.057 10.95,3.83c3.578,0.727 7.234,0.978 10.879,0.811c5.702,-0.261 11.355,-1.554 16.526,-3.993c3.953,-1.864 7.59,-4.375 10.751,-7.393c4.693,-4.481 8.319,-10.039 10.658,-16.085c1.418,-3.664 2.369,-7.515 2.779,-11.425c0.148,-1.413 0.217,-2.83 0.225,-4.251l-0.052,-2.002c0.009,-0.172 0.001,-0.217 0.05,-0.383c0.055,-0.186 0.154,-0.358 0.288,-0.499c0.044,-0.047 0.095,-0.087 0.143,-0.13l4.946,-3.817l-5.254,0.414l-0.187,0.001c-0.192,-0.029 -0.362,-0.066 -0.532,-0.165c-0.5,-0.29 -0.734,-0.908 -0.553,-1.457c0.062,-0.187 0.165,-0.328 0.29,-0.476l4.214,-4.317l-6.086,1.536l-0.185,0.032c-0.165,0.003 -0.209,0.014 -0.372,-0.021c-0.184,-0.038 -0.358,-0.119 -0.506,-0.234c-0.049,-0.038 -0.092,-0.084 -0.138,-0.126c-0.167,-0.175 -0.337,-0.348 -0.51,-0.517c-0.521,-0.498 -1.072,-0.961 -1.659,-1.379c-1.386,-0.986 -2.947,-1.722 -4.59,-2.162c-0.972,-0.261 -1.965,-0.41 -2.969,-0.47c-0.32,-0.015 -0.64,-0.021 -0.961,-0.019Z" style="fill:#fff;fill-rule:nonzero;"/></svg>