<?xml version="1.0" standalone="no"?><!DOCTYPE svg PUBLIC "-//W3C//DTD SVG 1.1//EN" "http://www.w3.org/Graphics/SVG/1.1/DTD/svg11.dtd"><svg width="100%" height="100%" viewBox="0 0 260 440" version="1.1" xmlns="http://www.w3.org/2000/svg" xmlns:xlink="http://www.w3.org/1999/xlink" xml:space="preserve" style="fill-rule:evenodd;clip-rule:evenodd;stroke-linejoin:round;stroke-miterlimit:1.41421;"><g><path d="M260,0l0,60l-260,0l0,-60l260,0ZM220,20l-180,0l0,20l180,0l0,-20Z" style="fill:#fff;"/><path d="M260,380l0,60l-260,0l0,-60l260,0ZM220,400l-180,0l0,20l180,0l0,-20Z" style="fill:#fff;"/><path d="M20,60l0,100l20,0l0,20l20,0l0,20l20,0l0,40l-20,0l0,20l-20,0l0,20l-20,0l0,100l20,0l0,-80l20,0l0,-20l20,0l0,-20l20,0l0,-20l20,0l0,-40l-20,0l0,-20l-20,0l0,-20l-20,0l0,-20l-20,0l0,-80l-20,0Z" style="fill:#fff;"/><path d="M240,380l0,-100l-20,0l0,-20l-20,0l0,-20l-20,0l0,-40l20,0l0,-20l20,0l0,-20l20,0l0,-100l-20,0l0,80l-20,0l0,20l-20,0l0,20l-20,0l0,20l-20,0l0,40l20,0l0,20l20,0l0,20l20,0l0,20l20,0l0,80l20,0Z" style="fill:#fff;"/><rect x="80" y="100" width="20" height="20" style="fill:#fff;"/><rect x="100" y="120" width="20" height="20" style="fill:#fff;"/><rect x="120" y="100" width="20" height="20" style="fill:#fff;"/><rect x="140" y="120" width="20" height="20" style="fill:#fff;"/><rect x="160" y="100" width="20" height="20" style="fill:#fff;"/><rect x="120" y="140" width="20" height="20" style="fill:#fff;"/><rect x="120" y="180" width="20" height="20" style="fill:#fff;"/><rect x="120" y="260" width="20" height="20" style="fill:#fff;"/><rect x="120" y="300" width="20" height="20" style="fill:#fff;"/><rect x="100" y="320" width="20" height="20" style="fill:#fff;"/><rect x="140" y="320" width="20" height="20" style="fill:#fff;"/><rect x="120" y="340" width="20" height="20" style="fill:#fff;"/><rect x="80" y="340" width="20" height="20" style="fill:#fff;"/><rect x="160" y="340" width="20" height="20" style="fill:#fff;"/><rect x="140" y="360" width="20" height="20" style="fill:#fff;"/><rect x="180" y="360" width="20" height="20" style="fill:#fff;"/><rect x="100" y="360" width="20" height="20" style="fill:#fff;"/><rect x="60" y="360" width="20" height="20" style="fill:#fff;"/></g></svg>