<?xml version="1.0" standalone="no"?><!DOCTYPE svg PUBLIC "-//W3C//DTD SVG 1.1//EN" "http://www.w3.org/Graphics/SVG/1.1/DTD/svg11.dtd"><svg width="100%" height="100%" viewBox="0 0 68 19" version="1.1" xmlns="http://www.w3.org/2000/svg" xmlns:xlink="http://www.w3.org/1999/xlink" xml:space="preserve" style="fill-rule:evenodd;clip-rule:evenodd;stroke-linejoin:round;stroke-miterlimit:1.41421;"><g><path d="M27.966,12.879c0.251,0.468 0.067,1.053 -0.401,1.32c-0.853,0.452 -1.805,0.702 -2.792,0.702c-3.226,0 -5.851,-2.624 -5.851,-5.85c0,-3.226 2.625,-5.851 5.851,-5.851c0.987,0 1.939,0.251 2.792,0.702c0.468,0.268 0.652,0.852 0.401,1.32c-0.267,0.486 -0.852,0.652 -1.337,0.402c-0.551,-0.318 -1.203,-0.468 -1.856,-0.468c-2.14,0 -3.895,1.738 -3.895,3.895c0,2.156 1.755,3.895 3.895,3.895c0.653,0 1.305,-0.15 1.856,-0.469c0.485,-0.25 1.07,-0.083 1.337,0.402" style="fill:#fff;fill-rule:nonzero;"/><path d="M35.907,3.199c0.535,0 0.986,0.435 0.986,0.971c0,0.551 -0.451,0.986 -0.986,0.986l-1.939,0l0,8.776c0,0.535 -0.451,0.969 -0.987,0.969c-0.535,0 -0.97,-0.434 -0.97,-0.969l0,-8.776l-1.954,0c-0.536,0 -0.971,-0.435 -0.971,-0.986c0,-0.536 0.435,-0.971 0.971,-0.971l5.85,0Z" style="fill:#fff;fill-rule:nonzero;"/><path d="M45.787,13.413c0.1,0.168 0.15,0.336 0.15,0.519c0,0.318 -0.168,0.636 -0.468,0.819c-0.151,0.1 -0.334,0.15 -0.501,0.15c-0.335,0 -0.653,-0.167 -0.836,-0.451l-2.157,-3.443l-1.638,0l0,2.925c0,0.535 -0.452,0.969 -0.987,0.969c-0.535,0 -0.968,-0.434 -0.968,-0.969l0,-9.762c0,-0.536 0.433,-0.971 0.968,-0.971l2.659,0c0.1,0 0.986,0.017 1.906,0.468c1.303,0.653 2.022,1.856 2.022,3.428c0,0.101 -0.016,1.003 -0.468,1.906c-0.352,0.685 -0.853,1.203 -1.471,1.537l1.789,2.875ZM40.337,9.051l1.672,0c0.835,0 1.371,-0.284 1.688,-0.887c0.268,-0.501 0.284,-1.036 0.284,-1.069c0,-0.836 -0.3,-1.371 -0.937,-1.689c-0.5,-0.25 -1.035,-0.25 -1.035,-0.25l-1.672,0l0,3.895Z" style="fill:#fff;fill-rule:nonzero;"/><path d="M49.18,14.901c-0.552,0 -0.986,-0.434 -0.986,-0.97l0,-9.762c0,-0.535 0.434,-0.97 0.986,-0.97c0.535,0 0.97,0.435 0.97,0.97l0,8.777l3.41,0c0.535,0 0.986,0.434 0.986,0.985c0,0.536 -0.451,0.97 -0.986,0.97l-4.38,0Z" style="fill:#fff;fill-rule:nonzero;"/><path d="M55.884,10.053l0,-5.852c0,-0.534 0.434,-0.986 0.969,-0.986c0.535,0 0.987,0.452 0.987,0.986l0,5.852c0,0.535 -0.452,0.969 -0.987,0.969c-0.535,0 -0.969,-0.434 -0.969,-0.969" style="fill:#fff;fill-rule:nonzero;"/><path d="M66.984,7.106c0,2.141 -1.756,3.896 -3.912,3.896c-2.14,0 -3.895,-1.755 -3.895,-3.896c0,-2.156 1.755,-3.911 3.895,-3.911c2.156,0 3.912,1.755 3.912,3.911M65.028,7.106c0,-1.086 -0.87,-1.955 -1.956,-1.955c-1.07,0 -1.939,0.869 -1.939,1.955c0,1.071 0.869,1.94 1.939,1.94c1.086,0 1.956,-0.869 1.956,-1.94" style="fill:#fff;fill-rule:nonzero;"/><path d="M66.022,14.901l-9.065,0c-0.559,0 -1.013,-0.454 -1.013,-1.014c0,-0.559 0.454,-1.013 1.013,-1.013l9.065,0c0.559,0 1.012,0.454 1.012,1.013c0,0.56 -0.453,1.014 -1.012,1.014" style="fill:#fff;fill-rule:nonzero;"/><path d="M6.415,9.103c0,1.584 1.282,2.865 2.864,2.865c1.58,0 2.863,-1.281 2.863,-2.865c0,-1.58 -1.283,-2.861 -2.863,-2.861c-1.582,0 -2.864,1.281 -2.864,2.861ZM9.263,7.231c-0.414,0 -0.75,0.335 -0.75,0.749l0,2.236c0,0.414 0.336,0.751 0.75,0.751l0,-0.001c0.414,0 0.749,-0.336 0.749,-0.75l0,-2.236c0,-0.414 -0.335,-0.749 -0.749,-0.749Z" style="fill:#fff;"/><path d="M0.001,8.957c-0.088,5.027 3.931,9.187 8.958,9.276c2.683,0.046 5.238,-1.084 7.012,-3.103c0.572,-0.651 0.508,-1.641 -0.143,-2.212c-0.65,-0.572 -1.642,-0.508 -2.214,0.141c-1.162,1.327 -2.841,2.069 -4.6,2.037c-3.299,-0.056 -5.935,-2.786 -5.876,-6.083c0.057,-3.3 2.786,-5.935 6.084,-5.876c1.666,0.028 3.202,0.722 4.323,1.958c0.584,0.641 1.575,0.688 2.216,0.106c0.64,-0.583 0.686,-1.574 0.104,-2.215c-1.682,-1.854 -4.085,-2.942 -6.588,-2.986c-0.054,0 -0.109,0 -0.162,0c-4.954,0 -9.028,3.984 -9.114,8.957" style="fill:#fff;fill-rule:nonzero;"/></g></svg>