<?xml version="1.0" standalone="no"?><!DOCTYPE svg PUBLIC "-//W3C//DTD SVG 1.1//EN" "http://www.w3.org/Graphics/SVG/1.1/DTD/svg11.dtd"><svg width="100%" height="100%" viewBox="0 0 46 56" version="1.1" xmlns="http://www.w3.org/2000/svg" xmlns:xlink="http://www.w3.org/1999/xlink" xml:space="preserve" style="fill-rule:evenodd;clip-rule:evenodd;stroke-linejoin:round;stroke-miterlimit:1.41421;"><g><path d="M17.491,37.965l5.909,-23.424l-0.555,0l-5.64,22.358l-0.53,-1.974l5.142,-20.384l-0.556,0l-4.873,19.319l-0.53,-1.974l4.375,-17.345l-0.555,0l-4.106,16.279l0.201,0.751l-0.732,-2.724l-0.074,-0.278l-0.883,-3.287l-0.145,-0.54l-0.531,-1.974l2.073,-8.216l-0.242,0l-0.001,0c-0.041,0 -0.079,0.008 -0.117,0.02c-0.01,0.003 -0.02,0.007 -0.03,0.01c-0.031,0.013 -0.06,0.028 -0.087,0.048c-0.005,0.003 -0.011,0.006 -0.016,0.01c-0.029,0.023 -0.055,0.052 -0.077,0.083c-0.007,0.009 -0.012,0.019 -0.017,0.029c-0.016,0.026 -0.029,0.055 -0.039,0.086c-0.001,0.003 -0.002,0.006 -0.003,0.009l-1.729,6.857l-1.842,-6.853c-0.047,-0.176 -0.207,-0.299 -0.39,-0.299l-10.487,0c-0.125,0 -0.243,0.057 -0.319,0.156c-0.076,0.098 -0.103,0.227 -0.072,0.347l7.441,29.116c0.005,0.019 0.015,0.034 0.022,0.051c0.004,0.01 0.009,0.02 0.014,0.029c0.011,0.023 0.023,0.045 0.038,0.064c0.006,0.008 0.014,0.015 0.021,0.023c0.026,0.028 0.054,0.053 0.086,0.072c0.018,0.011 0.036,0.022 0.055,0.03c0.014,0.007 0.029,0.011 0.045,0.016c0.032,0.009 0.066,0.016 0.101,0.017c0.004,0 0.009,0.002 0.013,0.002l10.865,0c0.004,0 0.009,-0.002 0.013,-0.002c0.035,-0.001 0.068,-0.008 0.101,-0.017c0.001,0 0.002,-0.001 0.003,-0.001c0.015,-0.005 0.029,-0.009 0.043,-0.015c0.018,-0.009 0.035,-0.019 0.053,-0.029c0.034,-0.021 0.064,-0.047 0.09,-0.077c0.006,-0.006 0.013,-0.013 0.018,-0.02c0.015,-0.018 0.026,-0.039 0.036,-0.059c0.001,-0.002 0.002,-0.004 0.003,-0.005c0.005,-0.01 0.009,-0.02 0.013,-0.03c0.018,-0.044 0.026,-0.091 0.028,-0.139l7.213,-28.596l0.003,-0.013l-5.492,21.779l1.765,6.913l0.002,0.007c0.005,0.019 0.015,0.034 0.022,0.051c0.005,0.01 0.009,0.02 0.013,0.029c0.012,0.023 0.024,0.045 0.039,0.064c0.006,0.008 0.014,0.015 0.021,0.023c0.026,0.028 0.054,0.053 0.087,0.072c0.017,0.011 0.035,0.022 0.054,0.03c0.014,0.007 0.029,0.011 0.045,0.016c0.032,0.009 0.066,0.016 0.101,0.017c0.004,0 0.008,0.002 0.013,0.002l10.486,0c0.005,0 0.009,-0.002 0.014,-0.002c-0.003,0 -0.006,0.002 -0.01,0.002l0.375,0c0.005,0 0.008,-0.002 0.013,-0.002c0.035,-0.001 0.068,-0.008 0.101,-0.017c0.015,-0.005 0.031,-0.01 0.046,-0.016c0.018,-0.009 0.035,-0.019 0.053,-0.029c0.034,-0.021 0.064,-0.047 0.09,-0.077c0.006,-0.006 0.013,-0.013 0.019,-0.02c0.011,-0.015 0.019,-0.031 0.028,-0.047c0.003,-0.006 0.007,-0.011 0.01,-0.017c0.005,-0.01 0.009,-0.02 0.013,-0.03c0.02,-0.048 0.026,-0.099 0.027,-0.15l11.116,-44.07l-0.555,0l-10.839,42.97l0.268,0.996l-0.268,-0.996l-0.53,-1.974l10.341,-40.996l-0.555,0l-10.073,39.93l0.199,0.74l-0.729,-2.713l9.575,-37.957l-0.555,0l-9.306,36.891l0.244,0.909l-0.244,-0.909l-0.53,-1.974l8.807,-34.917l-0.555,0l-8.538,33.851l0.204,0.764l-0.204,-0.764l-0.531,-1.973l-0.004,-0.016l-0.813,-3.023l7.275,-28.839l-0.555,0l-7.006,27.773l-0.53,-1.974l6.508,-25.799l-0.556,0l-6.239,24.733l0.226,0.839l-0.226,-0.839l-0.613,-2.281l0.083,0.308l5.741,-22.76l-0.555,0l-5.472,21.694l-1.839,-6.843c0,-0.001 0,-0.002 -0.001,-0.002c0,-0.002 0,-0.004 -0.001,-0.005c-0.011,-0.04 -0.028,-0.078 -0.05,-0.111c-0.001,-0.002 -0.002,-0.003 -0.003,-0.005c-0.047,-0.068 -0.114,-0.119 -0.191,-0.148c-0.007,-0.003 -0.014,-0.006 -0.021,-0.008c-0.039,-0.012 -0.079,-0.02 -0.121,-0.02l-0.036,0l-7.171,28.426l-0.53,-1.974l6.675,-26.463l-0.555,0l-6.407,25.397l-0.53,-1.973ZM31.004,31.862l0.004,0.016l8.041,-31.878l-0.555,0l-7.773,30.812l0.283,1.05ZM13.77,19.133l1.082,-4.286c-0.002,0.003 -0.004,0.005 -0.005,0.009l-1.077,4.277ZM13.939,24.742l0.145,0.54l0.141,0.525l2.842,-11.266l-0.555,0l-2.573,10.201ZM14.967,28.569l0.074,0.278l3.609,-14.306l-0.555,0l-3.34,13.24l0.212,0.788Z" style="fill:#fff;fill-rule:nonzero;"/><path d="M2.624,50.666l-1.149,0l1.143,4.458l1.016,0l0.672,-2.881l0.671,2.881l0.997,0l1.176,-4.458l-1.15,0l-0.605,2.914l-0.651,-2.914l-0.87,0l-0.658,2.901l-0.592,-2.901ZM10.114,50.666l-2.459,0l0,4.458l2.459,0l0,-1.003l-1.376,0l0,-0.761l1.336,0l0,-1.003l-1.336,0l0,-0.688l1.376,0l0,-1.003ZM12.133,50.666l-1.362,0l0,4.458l1.402,0c0.838,0 1.123,-0.073 1.456,-0.388c0.259,-0.24 0.405,-0.588 0.405,-0.962c0,-0.522 -0.253,-0.875 -0.731,-1.036c0.332,-0.194 0.512,-0.515 0.512,-0.903c0,-0.36 -0.16,-0.714 -0.419,-0.922c-0.233,-0.187 -0.525,-0.247 -1.263,-0.247M11.854,53.313l0.532,0c0.392,0 0.565,0.113 0.565,0.388c0,0.273 -0.2,0.42 -0.565,0.42l-0.532,0l0,-0.808ZM11.854,51.669l0.399,0c0.346,0 0.478,0.1 0.478,0.341c0,0.24 -0.146,0.354 -0.478,0.354l-0.399,0l0,-0.695ZM17.098,50.666l-1.149,0l1.143,4.458l1.016,0l0.671,-2.881l0.672,2.881l0.996,0l1.177,-4.458l-1.15,0l-0.605,2.914l-0.651,-2.914l-0.87,0l-0.658,2.901l-0.592,-2.901ZM24.588,50.666l-2.459,0l0,4.458l2.459,0l0,-1.003l-1.376,0l0,-0.761l1.336,0l0,-1.003l-1.336,0l0,-0.688l1.376,0l0,-1.003ZM27.8,50.666l-1.15,0l1.143,4.458l1.017,0l0.671,-2.881l0.671,2.881l0.997,0l1.176,-4.458l-1.15,0l-0.605,2.914l-0.651,-2.914l-0.87,0l-0.658,2.901l-0.591,-2.901ZM33.683,50.666l-1.775,4.458l1.216,0l0.233,-0.649l1.542,0l0.212,0.649l1.229,0l-1.76,-4.458l-0.897,0ZM33.669,53.573l0.465,-1.523l0.459,1.523l-0.924,0ZM37.662,50.666l-0.97,0l0,4.458l1.083,0l-0.046,-2.707l1.714,2.707l0.984,0l0,-4.458l-1.083,0l0.046,2.807l-1.728,-2.807ZM43.907,50.666l-2.884,0l0,1.003l0.878,0l0,3.455l1.129,0l0,-3.455l0.877,0l0,-1.003Z" style="fill:#fff;fill-rule:nonzero;"/></g></svg>