<?xml version="1.0" standalone="no"?><!DOCTYPE svg PUBLIC "-//W3C//DTD SVG 1.1//EN" "http://www.w3.org/Graphics/SVG/1.1/DTD/svg11.dtd"><svg width="100%" height="100%" viewBox="0 0 35 53" version="1.1" xmlns="http://www.w3.org/2000/svg" xmlns:xlink="http://www.w3.org/1999/xlink" xml:space="preserve" style="fill-rule:evenodd;clip-rule:evenodd;stroke-linejoin:round;stroke-miterlimit:1.41421;"><g><path d="M30.659,46.343l0.066,-3.329c0.025,-1.27 -0.147,-2.177 -0.664,-2.716c-0.516,-0.541 -1.489,-0.81 -2.698,-0.81c-0.543,0 -2.948,0.476 -3.722,1.371l0.997,1.646c0.745,-0.513 1.602,-0.973 2.348,-1.018c0.309,-0.019 0.984,-0.02 1.125,0.443c0.143,0.468 0.124,0.666 0.087,1.194c-1.546,0.058 -2.794,0.117 -3.605,0.638c-0.917,0.589 -1.22,1.497 -1.22,2.588c0,0.861 0.269,1.537 0.716,2.031c0.447,0.495 1.411,0.785 2.187,0.785c1.465,0 1.682,-0.137 2.703,-0.933c0.372,0.827 0.846,0.801 1.168,1.063l1.372,-1.48c-0.406,-0.385 -0.875,-0.706 -0.86,-1.473ZM27.011,47.341c-0.297,0 -0.517,-0.074 -0.659,-0.223c-0.14,-0.146 -0.299,-0.371 -0.299,-0.673c0,-0.41 -0.045,-0.95 0.308,-1.222c0.354,-0.272 0.967,-0.363 1.819,-0.339l0.022,1.589c0.004,0.286 -0.3,0.868 -1.191,0.868Z" style="fill:#fff;"/><path d="M21.332,47.241c-0.526,-0.442 -1.21,-0.802 -2.155,-0.801l-1.949,0.002c-0.484,0 -0.04,-0.792 0.517,-0.891c1.063,0.024 1.84,-0.197 2.349,-0.46c0.732,-0.379 1.298,-1.262 1.463,-2.029c0.189,-0.876 -0.12,-1.452 -0.33,-1.739c0.689,0.102 1.556,-0.123 2.166,-0.629c-0.447,-0.893 -1.043,-1.239 -1.041,-1.49c-0.601,0.288 -0.403,0.388 -1.471,0.683c-0.589,0.163 -0.948,-0.007 -1.341,-0.081c-0.017,-0.004 -0.816,-0.279 -1.717,-0.279c-1.25,0 -2.174,0.339 -2.901,0.818c-0.727,0.479 -1.13,1.649 -1.13,2.461c0,0.429 0.197,1.019 0.436,1.347c0.238,0.326 0.839,0.789 1.355,0.99c-0.516,0.176 -0.847,0.331 -1.139,0.632c-0.27,0.277 -0.315,0.416 -0.362,0.841c-0.055,0.495 0.131,1.24 1.944,1.461c0.913,0.151 1.547,0 2.474,0.085c0.876,0.083 1.284,0.507 1.043,1.467c-0.476,0.907 -2.649,0.919 -3.262,0.432c-0.259,-0.205 -0.38,-0.787 -0.32,-1.368c-1.101,0.032 -1.431,0.018 -2.329,0.064c-0.231,0.907 0.199,1.962 0.915,2.659c0.672,0.654 1.901,0.818 3.676,0.818c1.192,0 2.382,-0.394 3.063,-0.991c0.745,-0.653 0.866,-1.31 0.866,-2.202c0,-0.73 -0.293,-1.357 -0.82,-1.8ZM16.684,43.551c-0.234,-0.226 -0.351,-0.556 -0.351,-0.987c0,-0.394 0.126,-0.707 0.378,-0.947c0.251,-0.24 0.582,-0.36 0.992,-0.36c0.437,0 0.775,0.112 1.011,0.334c0.236,0.222 0.356,0.541 0.356,0.953c0,0.434 -0.114,0.765 -0.345,0.997c-0.229,0.232 -0.563,0.35 -1.003,0.35c-0.459,0 -0.804,-0.112 -1.038,-0.34Z" style="fill:#fff;"/><path d="M11.83,46.376l-0.041,-10.808l-2.566,0.531l0.068,10.418c0.006,0.795 0.255,1.359 0.545,1.667c1.009,1.072 2.777,0.777 3.328,0.531l-0.422,-1.439c-0.358,0.055 -0.909,0.017 -0.912,-0.9Z" style="fill:#fff;"/><path d="M6.07,35.592c-0.4,0 -0.745,0.144 -1.033,0.431c-0.288,0.289 -0.432,0.637 -0.432,1.044c0,0.4 0.144,0.744 0.432,1.033c0.288,0.288 0.633,0.432 1.033,0.432c0.407,0 0.754,-0.142 1.043,-0.427c0.287,-0.286 0.432,-0.631 0.432,-1.038c0,-0.415 -0.142,-0.762 -0.427,-1.048c-0.286,-0.286 -0.634,-0.427 -1.048,-0.427Z" style="fill:#fff;"/><path d="M4.785,48.78l2.43,-0.109l0,-9.35l-2.43,0.491l0,8.968Z" style="fill:#fff;"/><path d="M32.773,9.977c-0.943,-2.095 -2.214,-3.894 -3.831,-5.392c-1.61,-1.49 -3.421,-2.628 -5.428,-3.409c-2.007,-0.786 -4.077,-1.176 -6.203,-1.176c-1.95,0 -3.932,0.365 -5.951,1.1c-2.013,0.731 -3.862,1.806 -5.554,3.221c-1.692,1.422 -3.063,3.158 -4.114,5.209c-1.057,2.057 -1.617,4.366 -1.692,6.919c0,2.775 0.497,5.291 1.491,7.536c0.994,2.253 2.334,4.139 4.013,5.675c1.679,1.528 3.542,2.686 5.586,3.472c2.038,0.786 4.083,1.183 6.12,1.183c2.945,0 5.719,-0.699 8.323,-2.102c2.61,-1.402 4.711,-3.421 6.297,-6.069c1.59,-2.643 2.383,-5.725 2.383,-9.242c-0.025,-2.522 -0.503,-4.831 -1.44,-6.925ZM30.819,10.189l-2.556,0c-0.497,-1.144 -1.104,-2.228 -1.789,-3.229l2.196,0c0.842,0.976 1.566,2.06 2.149,3.229ZM13.373,17.097c-0.001,-0.123 -0.004,-0.246 -0.004,-0.368c0.008,-1.543 0.151,-3.065 0.376,-4.513l6.799,0c0.232,1.456 0.37,2.981 0.349,4.513c-0.002,0.122 -0.007,0.245 -0.01,0.368l-7.51,0ZM20.761,19.124c-0.131,1.427 -0.35,2.85 -0.619,4.205l-6.112,0c-0.257,-1.347 -0.46,-2.767 -0.57,-4.205l7.301,0ZM21.65,25.357l3.544,0c-0.548,1.022 -1.165,1.979 -1.819,2.846l-2.53,0c0.293,-0.885 0.565,-1.84 0.805,-2.846ZM21.363,6.96l2.832,0c0.672,0.995 1.284,2.082 1.795,3.229l-3.897,0c-0.202,-1.14 -0.449,-2.224 -0.73,-3.229ZM22.074,23.329c0.247,-1.36 0.43,-2.776 0.527,-4.205l4.746,0c-0.223,1.433 -0.642,2.853 -1.196,4.205l-4.077,0l0,0ZM22.681,17.097c0,-0.029 0.001,-0.056 0.001,-0.084c0.008,-1.625 -0.097,-3.243 -0.287,-4.797l4.369,0c0.492,1.55 0.78,3.163 0.764,4.768c-0.001,0.038 -0.004,0.075 -0.004,0.113l-4.843,0ZM26.563,4.932l-1.671,0c-0.787,-0.892 -1.621,-1.684 -2.462,-2.351c1.502,0.563 2.892,1.364 4.133,2.351ZM22.64,4.932l-1.929,0c-0.421,-1.141 -0.886,-2.111 -1.372,-2.857c1.072,0.624 2.216,1.614 3.301,2.857ZM20.155,10.189l-6.036,0c0.25,-1.163 0.54,-2.251 0.842,-3.229l4.304,0c0.32,0.981 0.628,2.069 0.89,3.229ZM17.083,2.073c0.148,0.027 0.76,1.114 1.453,2.859l-2.883,0c0.677,-1.794 1.279,-2.886 1.43,-2.859ZM15.352,1.785c-0.565,0.778 -1.115,1.856 -1.612,3.147l-2.183,0c1.255,-1.458 2.588,-2.566 3.795,-3.147ZM11.584,17.097l-4.984,0c0,-0.038 -0.002,-0.075 -0.002,-0.113c0.02,-1.599 0.331,-3.213 0.839,-4.768l4.501,0c-0.216,1.562 -0.344,3.182 -0.354,4.797c0,0.028 0.001,0.055 0,0.084ZM11.644,19.124c0.087,1.429 0.263,2.845 0.508,4.205l-4.247,0c-0.554,-1.349 -0.963,-2.769 -1.166,-4.205l4.905,0ZM8.225,10.189c0.516,-1.145 1.125,-2.233 1.792,-3.229l3.039,0c-0.298,1.007 -0.563,2.092 -0.783,3.229l-4.048,0ZM11.654,2.68c-0.796,0.645 -1.583,1.401 -2.327,2.252l-1.559,0c1.172,-0.933 2.478,-1.695 3.886,-2.252ZM5.66,6.96l2.11,0c-0.671,0.997 -1.271,2.079 -1.761,3.229l-2.498,0c0.583,-1.169 1.307,-2.253 2.149,-3.229ZM2.668,12.216l2.617,0c-0.414,1.422 -0.656,2.92 -0.661,4.468c0,0.138 0.006,0.275 0.008,0.413l-2.782,0c0.017,-1.706 0.304,-3.346 0.818,-4.881ZM1.961,19.124l2.796,0c0.162,1.459 0.469,2.871 0.899,4.205l-2.597,0c-0.55,-1.319 -0.923,-2.731 -1.098,-4.205ZM6.352,28.203l0,0.089c-0.866,-0.88 -1.629,-1.866 -2.27,-2.935l2.345,0c0.453,1.018 0.981,1.971 1.571,2.846l-1.646,0l0,0ZM8.669,30.23l0.944,0c0.466,0.494 0.957,0.944 1.47,1.345c-0.847,-0.375 -1.655,-0.826 -2.414,-1.345ZM10.717,28.203c-0.667,-0.865 -1.293,-1.824 -1.848,-2.846l3.704,0c0.239,1.006 0.512,1.961 0.806,2.846l-2.662,0l0,0ZM12.524,30.23l1.619,0c0.315,0.736 0.643,1.382 0.972,1.925c-0.837,-0.429 -1.721,-1.087 -2.591,-1.925ZM17.104,32.336c-0.183,-0.002 -0.621,-0.79 -1.136,-2.106l2.242,0c-0.501,1.314 -0.925,2.107 -1.106,2.106ZM15.258,28.203c-0.271,-0.858 -0.542,-1.817 -0.79,-2.846l5.226,0c-0.251,1.026 -0.52,1.986 -0.788,2.846l-3.648,0l0,0ZM19.154,32.105c0.316,-0.532 0.63,-1.163 0.932,-1.875l1.523,0c-0.822,0.807 -1.655,1.445 -2.455,1.875ZM22.324,31.95c0.699,-0.49 1.364,-1.068 1.99,-1.72l1.347,0c-1.031,0.705 -2.151,1.284 -3.337,1.72ZM28.053,28.214l0,-0.011l-2.087,0c0.611,-0.878 1.162,-1.832 1.638,-2.846l2.644,0c-0.622,1.038 -1.361,1.995 -2.195,2.857ZM31.271,23.329l-2.841,0c0.469,-1.343 0.816,-2.756 1.014,-4.205l2.925,0c-0.174,1.474 -0.548,2.886 -1.098,4.205ZM29.615,17.097c0.005,-0.138 0.013,-0.275 0.015,-0.413c0.027,-1.535 -0.209,-3.035 -0.63,-4.468l2.661,0c0.516,1.535 0.803,3.175 0.819,4.881l-2.865,0Z" style="fill:#fff;"/></g></svg>