<?xml version="1.0" standalone="no"?><!DOCTYPE svg PUBLIC "-//W3C//DTD SVG 1.1//EN" "http://www.w3.org/Graphics/SVG/1.1/DTD/svg11.dtd"><svg width="100%" height="100%" viewBox="0 0 1644 422" version="1.1" xmlns="http://www.w3.org/2000/svg" xmlns:xlink="http://www.w3.org/1999/xlink" xml:space="preserve" style="fill-rule:evenodd;clip-rule:evenodd;stroke-linejoin:round;stroke-miterlimit:1.41421;"><path d="M1028.79,357.607c1.352,0.047 2.599,0.127 3.845,0.128c11.36,0.01 22.72,-0.014 34.08,0.021c2.662,0.009 5.288,-0.136 7.914,-0.621c9.17,-1.694 15.937,-6.594 19.796,-15.119c3.032,-6.7 4.289,-13.85 4.29,-21.187c0.019,-72.451 -0.003,-144.9 0.044,-217.35c0.003,-5.096 -0.381,-10.117 -1.381,-15.1c-0.844,-4.21 -2.124,-8.295 -4.367,-11.968c-2.444,-4 -5.656,-7.269 -9.893,-9.469c-5.332,-2.769 -11.07,-3.916 -16.972,-3.997c-11.242,-0.154 -22.488,-0.05 -33.732,-0.049c-0.811,0 -1.627,-0.007 -2.43,0.082c-0.761,0.084 -1.311,0.554 -1.361,1.342c-0.08,1.27 -0.081,2.547 -0.081,3.821c-0.004,94.938 -0.004,189.876 -0.003,284.815c0,1.043 -0.011,2.087 0.023,3.129c0.014,0.439 0.127,0.874 0.228,1.522M964.422,416.247c0,-137.054 0,-273.599 0.01,-410.144c0,-0.437 0.154,-0.873 0.275,-1.517c1.204,-0.059 2.333,-0.159 3.464,-0.161c8.578,-0.013 17.157,-0.007 25.735,-0.007c25.157,0 50.313,-0.004 75.469,0.009c1.606,0 3.225,-0.195 4.792,0.513c0.591,0.266 1.377,0.223 2.057,0.154c3.49,-0.353 6.928,0.341 10.341,0.739c4.189,0.487 8.307,1.618 12.442,2.539c4.85,1.08 9.61,2.533 14.148,4.53c6.674,2.937 12.984,6.499 18.711,11.124c9.286,7.503 16.158,16.832 21.017,27.596c3.99,8.84 6.891,18.078 7.996,27.798c0.258,2.271 0.804,4.507 1.149,6.769c0.138,0.909 0.053,1.851 0.139,2.772c0.117,1.255 0.334,2.501 0.446,3.757c0.103,1.15 0.174,2.307 0.174,3.461c0.014,18.78 0.019,37.559 0.018,56.34c-0.002,57.152 -0.005,114.304 -0.019,171.456c-0.001,1.839 0.228,3.701 -0.496,5.497c-0.206,0.508 -0.099,1.144 -0.129,1.721c-0.345,6.567 -1.527,12.995 -2.964,19.404c-1.115,4.97 -2.7,9.755 -4.52,14.491c-2.796,7.277 -6.437,14.07 -11.343,20.148c-1.958,2.424 -3.782,5.013 -6.042,7.125c-7.055,6.595 -14.904,12.009 -23.906,15.737c-6.001,2.486 -12.122,4.389 -18.506,5.553c-4.64,0.848 -9.317,1.382 -13.976,2.041c-4.983,0.705 -9.921,0.515 -14.871,0.523c-32.344,0.061 -64.688,0.032 -97.032,0.032l-4.579,0Z" style="fill:#fff;fill-rule:nonzero;"/><path d="M64.561,357.741l3.986,0c11.592,0 23.184,-0.051 34.776,0.032c3.27,0.024 6.435,-0.462 9.563,-1.256c4.827,-1.226 9.01,-3.696 12.397,-7.306c2.713,-2.892 4.494,-6.426 5.831,-10.167c2.145,-6.004 3.25,-12.218 3.254,-18.568c0.039,-70.131 0.039,-140.262 -0.006,-210.394c-0.003,-5.182 0.231,-10.356 -0.492,-15.566c-0.686,-4.939 -1.56,-9.769 -3.476,-14.353c-2.791,-6.68 -7.403,-11.663 -14.211,-14.41c-4.413,-1.779 -9.061,-2.731 -13.773,-2.794c-11.937,-0.16 -23.878,-0.062 -35.818,-0.053c-0.668,0 -1.335,0.133 -2.128,0.217c-0.102,0.706 -0.232,1.256 -0.253,1.809c-0.429,11.141 -0.142,289.31 0.35,292.809M0.459,4.542c1.262,-0.041 2.511,-0.119 3.761,-0.119c32.347,-0.006 64.694,-0.005 97.042,-0.005c1.623,0 3.249,-0.058 4.868,0.021c1.139,0.055 2.267,0.305 3.401,0.453c0.686,0.088 1.386,0.262 2.06,0.197c3.49,-0.338 6.903,0.466 10.349,0.707c2.612,0.182 5.208,0.789 7.774,1.37c4.824,1.092 9.636,2.268 14.293,3.955c8.871,3.212 16.976,7.705 24.303,13.754c8.764,7.235 15.018,16.205 19.863,26.341c3.561,7.451 5.86,15.303 7.453,23.347c0.686,3.467 1.654,6.938 1.568,10.538c1.26,3.077 0.06,6.46 1.199,9.573c0.264,0.719 0.068,1.61 0.068,2.421c0.001,75.71 0.003,151.419 -0.016,227.127c-0.001,1.254 -0.259,2.507 -0.401,3.76c-0.064,0.57 -0.182,1.139 -0.202,1.711c-0.241,7.035 -1.627,13.883 -3.133,20.738c-1.342,6.118 -3.305,11.983 -5.764,17.724c-2.564,5.985 -5.731,11.611 -9.73,16.734c-6.102,7.818 -13.363,14.379 -22.044,19.221c-5.352,2.986 -11.011,5.333 -16.887,7.151c-5.076,1.57 -10.274,2.584 -15.485,3.51c-2.597,0.463 -5.262,0.538 -7.898,0.781c-0.346,0.032 -0.723,-0.061 -1.038,0.044c-3.275,1.094 -6.652,0.628 -9.984,0.631c-33.738,0.032 -67.477,0.021 -101.216,0.016c-1.374,0 -2.747,-0.051 -4.327,-0.082c-0.108,-0.799 -0.242,-1.448 -0.274,-2.103c-0.045,-0.925 -0.017,-1.854 -0.017,-2.781c0,-133.912 -0.001,-267.823 0.014,-401.735c0,-1.584 -0.287,-3.218 0.4,-5" style="fill:#fff;fill-rule:nonzero;"/><path d="M1509.52,357.741l3.969,0c11.244,0 22.488,-0.013 33.731,0.009c2.774,0.006 5.521,-0.075 8.261,-0.627c5.356,-1.08 10.197,-3.305 13.999,-7.165c4.922,-4.996 7.36,-11.339 8.579,-18.176c0.384,-2.154 0.411,-4.378 0.82,-6.486c0.45,-2.314 0.51,-4.585 0.511,-6.885c0.011,-70.592 -0.007,-141.184 0.038,-211.777c0.004,-5.777 -0.353,-11.494 -1.369,-17.176c-0.711,-3.988 -1.813,-7.871 -3.694,-11.46c-2.752,-5.251 -6.655,-9.327 -12.198,-11.799c-4.707,-2.099 -9.673,-3.113 -14.701,-3.215c-11.935,-0.241 -23.878,-0.091 -35.817,-0.071c-0.758,0.001 -1.517,0.242 -2.213,0.36c-0.352,3.593 -0.301,291.213 0.084,294.468M1445.11,416.103c0,-137.101 -0.001,-273.763 0.014,-410.424c0,-0.312 0.212,-0.624 0.397,-1.13c0.887,-0.043 1.789,-0.125 2.691,-0.125c34.196,-0.006 68.391,-0.009 102.586,0.012c1.137,0 2.276,0.253 3.413,0.405c0.455,0.061 0.911,0.264 1.357,0.237c3.48,-0.21 6.91,0.338 10.353,0.662c1.939,0.183 3.891,0.397 5.786,0.826c4.363,0.986 8.696,2.099 13.033,3.192c0.852,0.215 1.666,0.574 2.432,0.843c-0.057,0.358 -0.041,0.489 -0.098,0.547c-0.073,0.076 -0.204,0.121 -0.315,0.134c-0.343,0.038 -0.689,0.077 -1.034,0.077c-13.33,0.013 -26.66,0.021 -39.991,0.031c-0.114,0 -0.235,0.005 -0.34,0.044c-0.106,0.038 -0.196,0.122 -0.416,0.267c1.142,0.531 2.271,0.279 3.35,0.28c12.403,0.02 24.808,0.143 37.208,-0.054c4.674,-0.074 8.797,1.045 12.903,3.162c7.571,3.903 14.533,8.639 20.374,14.804c7.138,7.533 12.547,16.244 16.327,25.945c2.266,5.813 4.06,11.731 5.191,17.894c0.706,3.841 1.091,7.745 1.932,11.522c0.764,3.427 -0.041,6.939 1.138,10.279c0.292,0.827 0.064,1.839 0.064,2.767c0.001,74.881 0.002,149.763 -0.003,224.645c0,1.498 0.116,3 -0.481,4.454c-0.208,0.508 -0.21,1.155 -0.138,1.716c0.41,3.148 -0.592,6.176 -0.857,9.26c-0.332,3.865 -1.4,7.669 -2.177,11.494c-2.496,12.272 -7.274,23.57 -14.661,33.699c-7.951,10.905 -18.23,18.927 -30.618,24.251c-5.412,2.325 -10.957,4.263 -16.757,5.382c-3.498,0.674 -7.029,1.217 -10.52,1.865c-2.956,0.549 -6.017,-0.052 -8.883,1.111c-0.699,0.284 -1.606,0.068 -2.417,0.068c-35.702,0.002 -71.404,0.003 -107.106,-0.004c-1.134,0 -2.268,-0.082 -3.737,-0.138" style="fill:#fff;fill-rule:nonzero;"/><path d="M846.081,210.75c0,-34.196 0.037,-68.393 -0.034,-102.589c-0.012,-6.113 0.375,-12.226 -0.522,-18.353c-0.789,-5.39 -1.896,-10.624 -4.277,-15.529c-1.419,-2.921 -3.151,-5.643 -5.571,-7.888c-5.506,-5.11 -12.14,-7.365 -19.501,-7.775c-1.849,-0.103 -3.712,0.049 -5.563,-0.029c-4.216,-0.179 -8.235,0.671 -12.205,2.016c-5.96,2.019 -10.364,5.877 -13.706,11.112c-1.757,2.751 -2.888,5.756 -3.84,8.842c-1.814,5.88 -2.441,11.957 -2.445,18.054c-0.051,74.189 -0.032,148.379 -0.038,222.568c0,4.619 0.434,9.188 1.198,13.744c0.768,4.585 2.179,8.91 4.324,13.047c2.896,5.586 7.309,9.407 12.967,11.989c4.72,2.154 9.757,2.632 14.809,3.013c3.596,0.271 7.132,-0.496 10.604,-1.273c9.325,-2.089 15.948,-7.635 19.721,-16.385c2.808,-6.511 4.057,-13.418 4.064,-20.498c0.034,-38.022 0.015,-76.043 0.015,-114.066M910.151,210.65c0,38.609 0.002,77.218 -0.006,115.827c0,1.726 0.202,3.474 -0.508,5.146c-0.171,0.403 -0.104,0.914 -0.113,1.376c-0.116,6.364 -1.544,12.539 -2.829,18.719c-1.007,4.85 -2.442,9.607 -4.247,14.233c-3.422,8.772 -7.757,17.084 -13.821,24.302c-7.978,9.495 -17.578,17.049 -29.038,21.959c-8.27,3.543 -16.83,6.168 -25.821,7.364c-4.235,0.564 -8.46,0.915 -12.708,1.261c-3.584,0.292 -7.153,0.511 -10.73,0.396c-4.727,-0.153 -9.444,-0.501 -14.161,-0.941c-4.019,-0.376 -7.951,-1.113 -11.889,-1.921c-6.919,-1.42 -13.555,-3.685 -20.004,-6.539c-6.921,-3.064 -13.295,-7.05 -18.961,-12.025c-7.534,-6.615 -13.716,-14.354 -18.439,-23.266c-4.308,-8.128 -7.174,-16.77 -9.246,-25.657c-1.064,-4.559 -1.834,-9.218 -2.302,-13.923c-0.228,-2.294 -0.243,-4.607 -0.552,-6.876c-1.083,-7.967 -0.493,-15.962 -0.501,-23.938c-0.061,-69.333 -0.036,-138.666 -0.03,-208c0.001,-1.961 -0.191,-3.94 0.482,-5.857c0.147,-0.419 0.077,-0.918 0.09,-1.381c0.227,-8.317 1.91,-16.39 3.84,-24.452c1.899,-7.929 4.933,-15.378 8.671,-22.573c2.618,-5.039 5.956,-9.583 9.514,-14.003c2.928,-3.636 6.294,-6.803 9.865,-9.729c4.468,-3.661 9.285,-6.883 14.496,-9.414c5.607,-2.723 11.36,-5.125 17.424,-6.666c4.69,-1.191 9.398,-2.33 14.254,-2.649c2.841,-1.171 5.996,-0.123 8.866,-1.262c0.704,-0.28 1.608,-0.064 2.419,-0.064c5.101,-0.002 10.203,-0.016 15.304,0.007c1.837,0.009 3.704,-0.246 5.475,0.573c0.391,0.181 0.912,0.079 1.374,0.11c7.851,0.518 15.52,1.987 23.033,4.322c5.086,1.581 9.979,3.616 14.723,6.021c4.758,2.411 9.096,5.457 13.342,8.666c3.345,2.529 6.308,5.475 9.057,8.577c3.444,3.884 6.556,8.065 9.148,12.604c4.842,8.479 8.594,17.378 10.628,26.961c0.832,3.924 1.799,7.823 2.492,11.771c0.455,2.598 0.519,5.266 0.78,7.9c0.103,1.026 0.303,2.043 0.395,3.07c0.113,1.262 0.224,2.531 0.224,3.798c0.016,33.507 0.018,67.014 0.022,100.521c0,5.218 0,10.435 0,15.652l-0.012,0Z" style="fill:#fff;fill-rule:nonzero;"/><path d="M667.336,142.819c-0.757,0.114 -1.426,0.282 -2.101,0.306c-11.013,0.383 -54.306,0.145 -57.395,-0.31c-0.79,-0.981 -0.457,-2.182 -0.459,-3.293c-0.025,-11.941 -0.008,-23.882 -0.023,-35.823c-0.003,-2.073 0.18,-4.154 -0.556,-6.188c-0.262,-0.726 -0.142,-1.61 -0.109,-2.418c0.229,-5.72 -0.883,-11.236 -2.719,-16.6c-3.399,-9.931 -10.135,-16.429 -20.376,-18.996c-2.198,-0.551 -4.477,-1.048 -6.829,-0.924c-2.312,0.123 -4.637,-0.022 -6.954,0.036c-5.894,0.15 -11.403,1.675 -16.352,4.925c-4.162,2.732 -7.269,6.447 -9.341,10.952c-2.077,4.513 -3.382,9.233 -4.033,14.207c-0.364,2.777 -0.482,5.516 -0.482,8.28c-0.014,76.515 -0.025,153.03 0.011,229.545c0.003,6.983 1.517,13.681 4.573,20.011c3.183,6.593 8.245,10.977 15.107,13.479c5.42,1.977 11.013,2.584 16.676,2.227c5.415,-0.343 10.705,-1.421 15.531,-4.196c4.119,-2.367 7.414,-5.504 9.73,-9.645c2.611,-4.671 4.192,-9.649 4.938,-14.978c0.356,-2.54 0.427,-5.048 0.532,-7.581c0.047,-1.138 0.337,-2.263 0.45,-3.4c0.114,-1.148 0.2,-2.303 0.201,-3.456c0.012,-17.158 0.007,-34.316 0.013,-51.473c0.001,-1.365 0.065,-2.729 0.102,-4.183c0.661,-0.125 1.096,-0.28 1.531,-0.28c19.341,-0.012 38.682,-0.011 57.96,-0.011c0.825,1.257 0.544,2.442 0.547,3.56c0.022,10.086 0.013,20.172 0.013,30.259c0,10.086 0.018,20.172 -0.02,30.258c-0.006,1.488 -0.301,2.972 -0.433,4.462c-0.081,0.92 -0.122,1.845 -0.158,2.768c-0.111,2.88 -0.471,5.725 -1.062,8.547c-0.259,1.238 -0.407,2.501 -0.586,3.755c-0.987,6.863 -3.023,13.431 -5.372,19.936c-2.532,7.01 -5.833,13.599 -10.149,19.662c-3.827,5.375 -8.125,10.305 -13.236,14.569c-5.547,4.629 -11.546,8.52 -18.109,11.397c-6.848,3.003 -13.942,5.448 -21.373,6.69c-3.624,0.606 -7.259,1.154 -10.89,1.726c-0.228,0.035 -0.459,0.069 -0.69,0.072c-6.244,0.055 -12.467,0.947 -18.719,0.552c-4.721,-0.299 -9.474,-0.45 -14.143,-1.142c-10.052,-1.492 -19.812,-4.058 -29.069,-8.437c-6.319,-2.989 -12.258,-6.554 -17.477,-11.148c-7.252,-6.382 -13.25,-13.802 -17.844,-22.388c-4.729,-8.84 -7.745,-18.252 -9.921,-27.948c-0.722,-3.214 -1.142,-6.54 -1.614,-9.829c-0.94,-6.535 -1.243,-13.063 -1.24,-19.645c0.032,-75.935 0.024,-151.871 0.037,-227.806c0.001,-1.95 0.002,-3.864 0.543,-5.825c0.541,-1.956 0.409,-4.089 0.672,-6.15c1.231,-9.641 3.472,-18.995 6.973,-28.06c3.148,-8.147 7.454,-15.629 12.856,-22.469c5.277,-6.682 11.696,-12.096 18.936,-16.556c9.453,-5.824 19.684,-9.665 30.583,-11.598c3.947,-0.7 7.911,-1.619 11.98,-1.467c7.578,-1.449 15.231,-0.376 22.844,-0.64c1.347,-0.047 2.706,0.48 4.071,0.625c2.629,0.281 5.303,0.279 7.893,0.752c4.418,0.806 8.827,1.73 13.165,2.885c8.552,2.277 16.512,5.956 23.831,10.931c11.226,7.631 19.853,17.519 25.94,29.706c4.783,9.575 7.931,19.645 9.743,30.133c0.724,4.187 1.101,8.451 1.54,12.694c0.646,6.251 0.392,12.479 0.479,18.716c0.086,6.143 0.019,12.289 0.019,18.433c0,5.101 0.007,10.202 -0.008,15.303c-0.003,0.799 -0.111,1.599 -0.178,2.504" style="fill:#fff;fill-rule:nonzero;"/><path d="M1280.75,178.253l44.609,0c7.304,0 14.609,0 21.913,0c7.287,0.002 14.573,-0.005 21.636,0.005c0.995,1 0.759,1.972 0.764,2.857c0.028,4.986 0.016,9.971 0.016,14.957c0,12.174 0.003,24.348 -0.005,36.522c-0.001,1.249 -0.074,2.499 -0.118,3.904c-3.901,0.445 -7.594,0.163 -11.273,0.213c-3.709,0.049 -7.42,0.011 -11.13,0.011l-10.782,0l-11.132,0l-11.13,0l-11.13,0l-10.783,0c-3.699,0 -7.397,0 -11.042,0c-0.205,0.555 -0.428,0.876 -0.428,1.197c-0.034,39.419 -0.052,78.839 -0.055,118.258c0,0.441 0.192,0.882 0.35,1.56c4.659,0.001 9.283,0.003 13.907,0.004c4.637,0.001 9.275,0 13.913,0l55.653,0c4.638,0 9.276,-0.016 13.913,0.004c4.609,0.021 9.223,-0.097 13.938,0.093c0.117,0.804 0.267,1.355 0.267,1.907c0.012,18.66 0.01,37.32 0.01,56.109c-0.837,0.151 -1.489,0.325 -2.15,0.375c-0.807,0.06 -1.622,0.017 -2.434,0.017c-55.652,0 -111.305,0.001 -166.958,0.001l-4.277,0c-0.153,-0.856 -0.331,-1.508 -0.373,-2.168c-0.06,-0.924 -0.02,-1.854 -0.02,-2.782c-0.001,-133.915 -0.001,-267.829 -0.001,-401.744c0,-1.5 0,-3.001 0,-4.649c0.803,-0.185 1.437,-0.401 2.087,-0.462c0.804,-0.075 1.621,-0.024 2.433,-0.024c55.769,0 111.537,0 167.306,0.005c1.259,0 2.519,0.066 3.989,0.108c0.149,0.761 0.332,1.4 0.385,2.049c0.065,0.807 0.027,1.622 0.027,2.433c0,16.464 0.004,32.928 -0.007,49.392c-0.001,1.365 0.149,2.753 -0.266,4.143c-1.298,0.562 -2.588,0.332 -3.832,0.333c-19.246,0.017 -38.493,0.012 -57.74,0.012c-15.305,0 -30.609,-0.006 -45.914,0.013c-1.251,0.002 -2.538,-0.24 -3.894,0.336c-0.105,0.505 -0.285,1.052 -0.32,1.608c-0.059,0.924 -0.032,1.854 -0.032,2.782c0,35.362 -0.001,70.726 0.004,106.089c0,1.374 0.062,2.747 0.106,4.532" style="fill:#fff;fill-rule:nonzero;"/><path d="M427.879,4.523c0.491,3.731 0.639,33.416 0.321,55.633c-0.011,0.789 -0.082,1.576 -0.137,2.565c-1.203,0.064 -2.214,0.164 -3.225,0.165c-8.463,0.012 -16.926,0.007 -25.389,0.007c-26.201,0 -52.401,-0.001 -78.602,0.003c-1.376,0 -2.752,0.041 -4.296,0.066c-0.155,0.81 -0.343,1.452 -0.387,2.105c-0.063,0.923 -0.022,1.853 -0.022,2.781l0,110.042c0.821,0.139 1.466,0.311 2.118,0.345c1.04,0.055 2.085,0.019 3.129,0.019c26.548,0 53.097,-0.002 79.645,0.004c1.255,0 2.51,0.064 3.542,0.093c0.299,0.262 0.408,0.325 0.467,0.418c0.059,0.092 0.094,0.215 0.094,0.324c0.04,18.199 0.077,36.398 0.104,54.597c0.002,0.808 -0.079,1.616 -0.14,2.424c-0.008,0.088 -0.143,0.167 -0.471,0.527c-2.132,0.182 -4.546,0.054 -6.951,0.076c-2.435,0.022 -4.869,0.005 -7.304,0.005l-7.651,0l-7.304,0l-7.304,0l-7.303,0l-7.304,0l-7.304,0l-7.651,0l-7.304,0c-2.435,0 -4.869,0 -7.304,0l-7.416,0c-0.151,0.852 -0.32,1.499 -0.369,2.155c-0.058,0.807 -0.019,1.622 -0.019,2.433c0,37.331 -0.001,74.661 0.005,111.991c0,1.362 0.076,2.725 0.121,4.253c4.835,0.385 9.448,0.131 14.051,0.177c4.637,0.046 9.275,0.01 13.912,0.01l83.427,0c0.866,1.318 0.525,2.628 0.529,3.847c0.032,10.897 0.018,21.795 0.018,32.693c0,6.028 0.006,12.057 -0.005,18.085c-0.002,1.141 -0.069,2.282 -0.111,3.608c-0.779,0.1 -1.434,0.219 -2.093,0.26c-0.694,0.043 -1.391,0.012 -2.086,0.012c-55.764,0 -111.527,0.001 -167.29,-0.003c-1.371,0 -2.742,-0.046 -4.291,-0.074c-0.1,-0.855 -0.217,-1.513 -0.245,-2.174c-0.039,-0.926 -0.013,-1.855 -0.013,-2.782c0,-133.901 0,-267.803 0,-401.704l0,-4.647c0.807,-0.169 1.448,-0.358 2.101,-0.423c0.689,-0.069 1.39,-0.021 2.085,-0.021c55.879,0 111.758,0 167.637,0.004c1.258,0 2.516,0.062 3.985,0.101" style="fill:#fff;fill-rule:nonzero;"/></svg>