<?xml version="1.0" standalone="no"?>
<!DOCTYPE svg PUBLIC "-//W3C//DTD SVG 1.1//EN" "http://www.w3.org/Graphics/SVG/1.1/DTD/svg11.dtd">
<svg width="100%" height="100%" viewBox="0 0 408 107" version="1.1" xmlns="http://www.w3.org/2000/svg" xmlns:xlink="http://www.w3.org/1999/xlink" xml:space="preserve" style="fill-rule:evenodd;clip-rule:evenodd;stroke-linejoin:round;stroke-miterlimit:1.41421;">
    <g transform="matrix(1,0,0,1,-183.3,-253.592)">
        <g transform="matrix(1,0,0,1,-57.7,-150.074)">
            <g id="logo" transform="matrix(2.54286,0,0,2.54286,149.095,313.565)">
                <g transform="matrix(0.33139,0,0,0.33139,-211.815,-103.369)">
                    <path d="M1193.47,437.774C1193.47,427.322 1201.94,418.848 1212.4,418.848C1222.85,418.848 1231.32,427.322 1231.32,437.774C1231.32,448.227 1222.85,456.701 1212.4,456.701C1201.94,456.701 1193.47,448.227 1193.47,437.774ZM1196.92,437.774C1196.92,429.226 1203.85,422.297 1212.4,422.297C1220.95,422.297 1227.88,429.226 1227.88,437.774C1227.88,446.323 1220.95,453.252 1212.4,453.252C1203.85,453.252 1196.92,446.323 1196.92,437.774Z" style="fill:rgb(28,28,28);"/>
                </g>
                <path d="M189.283,43.236C189.283,42.768 188.904,42.389 188.436,42.389L186.205,42.389L186.205,41.021L188.436,41.021C188.904,41.021 189.283,40.642 189.283,40.174L189.283,37.943L190.65,37.943L190.65,40.174C190.65,40.642 191.03,41.021 191.498,41.021L193.729,41.021L193.729,42.389L191.498,42.389C191.03,42.389 190.65,42.768 190.65,43.236L190.65,45.467L189.283,45.467L189.283,43.236Z" style="fill:rgb(28,28,28);fill-rule:nonzero;"/>
                <path d="M154.007,41.021L154.007,77.18L178.133,77.18L178.133,71.368L159.564,71.368L159.564,61.905L175.386,61.905L175.386,56.297L159.564,56.297L159.564,46.834L178.133,46.834L178.133,41.021L154.007,41.021Z" style="fill:rgb(28,28,28);fill-rule:nonzero;"/>
                <path d="M130.432,71.331L123.766,71.331L123.766,46.871L130.432,46.871C137.019,46.871 142.36,52.347 142.36,59.101C142.36,65.857 137.019,71.331 130.432,71.331M130.229,40.981L118.199,40.981L118.199,77.18L130.229,77.18C140.133,77.18 147.955,69.087 147.955,59.101C147.955,49.117 140.133,40.981 130.229,40.981" style="fill:rgb(28,28,28);fill-rule:nonzero;"/>
                <path d="M93.49,41.021L78.463,77.18L84.52,77.18L86.988,70.96L103.623,70.96L106.091,77.18L112.148,77.18L97.121,41.021L93.49,41.021ZM95.303,51.283L101.017,65.213L89.594,65.213L95.303,51.283Z" style="fill:rgb(28,28,28);fill-rule:nonzero;"/>
                <path d="M67.999,41.021L54.276,56.636L40.554,41.021L36.142,41.021L36.142,77.18L41.705,77.18L41.705,51.193L54.276,65.3L66.847,51.193L66.847,77.18L72.411,77.18L72.411,41.021L67.999,41.021Z" style="fill:rgb(28,28,28);fill-rule:nonzero;"/>
            </g>
        </g>
    </g>
</svg>
