<?xml version="1.0" standalone="no"?><!DOCTYPE svg PUBLIC "-//W3C//DTD SVG 1.1//EN" "http://www.w3.org/Graphics/SVG/1.1/DTD/svg11.dtd"><svg width="100%" height="100%" viewBox="0 0 1933 256" version="1.1" xmlns="http://www.w3.org/2000/svg" xmlns:xlink="http://www.w3.org/1999/xlink" xml:space="preserve" style="fill-rule:evenodd;clip-rule:evenodd;stroke-linejoin:round;stroke-miterlimit:1.41421;"><path d="M166.635,27.537c17.181,14.357 25.772,36.481 25.772,66.372c0,29.891 -8.767,51.779 -26.301,65.666c-17.535,13.886 -44.425,20.829 -80.67,20.829l-43.777,0l0,72.373l-41.659,0l0,-246.775l84.73,0c37.422,0 64.724,7.178 81.905,21.535ZM137.156,129.39c8.356,-8.826 12.533,-21.771 12.533,-38.835c0,-17.063 -5.295,-29.126 -15.887,-36.186c-10.591,-7.061 -27.184,-10.592 -49.778,-10.592l-42.365,0l0,98.852l48.366,0c23.066,0 38.776,-4.413 47.131,-13.239Z" style="fill:#fff;"/><path d="M450.127,6.002l0,39.187l-131.684,0l0,65.313l118.268,0l0,37.069l-118.268,0l0,66.019l135.92,0l0,39.187l-177.579,0l0,-246.775l173.343,0Z" style="fill:#fff;"/><path d="M727.97,6.002l41.659,0l0,246.775l-45.189,0l-139.805,-180.05l0,180.05l-41.658,0l0,-246.775l41.658,0l143.335,184.287l0,-184.287Z" style="fill:#fff;"/><path d="M1070.42,86.142c0,40.718 -17.77,66.372 -53.31,76.963l64.61,89.672l-52.96,0l-58.96,-82.964l-54.72,0l0,82.964l-41.66,0l0,-246.775l91.79,0c37.66,0 64.61,6.355 80.85,19.064c16.24,12.71 24.36,33.068 24.36,61.076ZM1014.99,121.093c8.48,-7.296 12.71,-19.005 12.71,-35.127c0,-16.123 -4.35,-27.184 -13.06,-33.186c-8.71,-6.002 -24.24,-9.003 -46.6,-9.003l-52.96,0l0,88.26l51.9,0c23.54,0 39.54,-3.648 48.01,-10.944Z" style="fill:#fff;"/><path d="M1279.77,38.129c-24.47,0 -45.13,8.708 -61.95,26.125c-16.83,17.416 -25.25,38.54 -25.25,63.37c0,24.831 8.42,45.955 25.25,63.371c16.82,17.417 37.48,26.125 61.95,26.125c24.48,0 45.13,-8.708 61.96,-26.125c16.83,-17.416 25.24,-38.54 25.24,-63.371c0,-24.83 -8.41,-45.954 -25.24,-63.37c-16.83,-17.417 -37.48,-26.125 -61.96,-26.125ZM1279.77,255.249c-36.71,0 -67.54,-12.18 -92.49,-36.54c-24.95,-24.36 -37.43,-54.721 -37.43,-91.085c0,-36.363 12.48,-66.724 37.43,-91.084c24.95,-24.36 55.78,-36.54 92.49,-36.54c36.72,0 67.55,12.18 92.5,36.54c24.95,24.36 37.42,54.721 37.42,91.084c0,36.364 -12.47,66.725 -37.42,91.085c-24.95,24.36 -55.78,36.54 -92.5,36.54Z" style="fill:#fff;"/><path d="M1542.44,45.896c-7.77,4.942 -11.65,12.415 -11.65,22.418c0,10.002 3.88,17.652 11.65,22.947c7.76,5.296 24.3,11.003 49.6,17.123c25.3,6.119 44.36,14.71 57.19,25.772c12.83,11.062 19.24,27.36 19.24,48.896c0,21.535 -8.12,39.011 -24.36,52.426c-16.24,13.416 -37.54,20.124 -63.9,20.124c-38.6,0 -72.84,-13.298 -102.73,-39.894l26.12,-31.42c24.95,21.653 50.84,32.479 77.67,32.479c13.42,0 24.07,-2.883 31.95,-8.649c7.89,-5.767 11.83,-13.416 11.83,-22.948c0,-9.532 -3.71,-16.946 -11.12,-22.241c-7.42,-5.296 -20.19,-10.121 -38.31,-14.475c-18.12,-4.354 -31.89,-8.355 -41.3,-12.004c-9.42,-3.648 -17.77,-8.414 -25.07,-14.298c-14.59,-11.062 -21.89,-28.008 -21.89,-50.838c0,-22.829 8.3,-40.423 24.89,-52.779c16.59,-12.357 37.13,-18.535 61.61,-18.535c15.77,0 31.42,2.589 46.95,7.767c15.53,5.178 28.95,12.474 40.25,21.889l-22.24,31.42c-7.3,-6.59 -17.19,-12.003 -29.66,-16.24c-12.47,-4.236 -24.77,-6.354 -36.89,-6.354c-12.12,0 -22.07,2.471 -29.83,7.414Z" style="fill:#fff;"/><path d="M1928.66,6.002l0,39.187l-131.68,0l0,65.313l118.27,0l0,37.069l-118.27,0l0,66.019l135.92,0l0,39.187l-177.58,0l0,-246.775l173.34,0Z" style="fill:#fff;"/></svg>