<?xml version="1.0" standalone="no"?><!DOCTYPE svg PUBLIC "-//W3C//DTD SVG 1.1//EN" "http://www.w3.org/Graphics/SVG/1.1/DTD/svg11.dtd"><svg width="100%" height="100%" viewBox="0 0 245 239" version="1.1" xmlns="http://www.w3.org/2000/svg" xmlns:xlink="http://www.w3.org/1999/xlink" xml:space="preserve" style="fill-rule:evenodd;clip-rule:evenodd;stroke-linejoin:round;stroke-miterlimit:1.41421;"><path d="M225.59,92.291l-18.798,10.851l0,43.415l-28.196,16.279l-9.398,-5.427l-0.003,-10.852l18.817,-10.844l-0.019,-43.422l28.2,-16.281l9.399,5.427l-0.002,10.854ZM140.997,162.836l-28.199,-16.28l0.019,-43.423l-18.818,-10.844l0.003,-10.851l9.398,-5.428l28.196,16.279l0,43.415l18.798,10.852l0.002,10.854l-9.399,5.426ZM75.199,92.291l-18.799,10.851l0,43.415l-28.196,16.279l-9.398,-5.427l-0.003,-10.852l18.818,-10.844l-0.019,-43.422l28.199,-16.281l9.4,5.427l-0.002,10.854ZM122.139,0l-122.139,70.577l0,97.68l122.129,70.511l122.253,-70.511l0,-97.68l-122.243,-70.577Z" style="fill:#fff;fill-rule:nonzero;"/></svg>