<?xml version="1.0" standalone="no"?><!DOCTYPE svg PUBLIC "-//W3C//DTD SVG 1.1//EN" "http://www.w3.org/Graphics/SVG/1.1/DTD/svg11.dtd"><svg width="100%" height="100%" viewBox="0 0 678 43" version="1.1" xmlns="http://www.w3.org/2000/svg" xmlns:xlink="http://www.w3.org/1999/xlink" xml:space="preserve" style="fill-rule:evenodd;clip-rule:evenodd;stroke-linejoin:round;stroke-miterlimit:1.41421;"><g id="logo"><path d="M0,0.756l0,3.605l15.06,0l0,37.099l3.838,0l0,-37.099l15.06,0l0,-3.605l-33.958,0Z" style="fill:#fff;fill-rule:nonzero;"/><path d="M73.848,0.756l0,17.851l-23.724,0l0,-17.851l-3.838,0l0,40.704l3.838,0l0,-19.189l23.724,0l0,19.189l3.838,0l0,-40.704l-3.838,0Z" style="fill:#fff;fill-rule:nonzero;"/><path d="M93.037,0.756l0,40.704l21.863,0l0,-3.606l-18.025,0l0,-15.583l15.99,0l0,-3.605l-15.99,0l0,-14.305l18.025,0l0,-3.605l-21.863,0Z" style="fill:#fff;fill-rule:nonzero;"/><path d="M148.568,0.756l0,40.704l22.62,0l0,-3.606l-18.782,0l0,-37.098l-3.838,0Z" style="fill:#fff;fill-rule:nonzero;"/><rect x="184.271" y="0.756" width="3.838" height="40.704" style="fill:#fff;fill-rule:nonzero;"/><path d="M231.429,0.756l0,34.017l-1.744,-2.559l-21.98,-31.458l-3.664,0l0,40.704l3.838,0l0,-34.017l1.57,2.384l22.096,31.633l3.722,0l0,-40.704l-3.838,0Z" style="fill:#fff;fill-rule:nonzero;"/><path d="M250.618,0.756l0,40.704l21.864,0l0,-3.606l-18.026,0l0,-15.583l15.99,0l0,-3.605l-15.99,0l0,-14.305l18.026,0l0,-3.605l-21.864,0Z" style="fill:#fff;fill-rule:nonzero;"/><path d="M345.108,21.05c0,-5.99 -1.918,-10.99 -5.814,-15.003c-3.896,-4.012 -8.781,-6.047 -14.77,-6.047c-5.989,0 -10.932,2.035 -14.828,6.047c-3.896,4.013 -5.814,9.013 -5.814,15.003c0,6.047 1.918,11.106 5.814,15.118c3.896,4.012 8.839,6.047 14.828,6.047c5.989,0 10.874,-2.035 14.77,-6.047c3.896,-4.012 5.814,-9.071 5.814,-15.118ZM324.524,3.605c4.826,0 8.78,1.686 11.862,5.001c3.14,3.314 4.71,7.443 4.71,12.444c0,5.058 -1.57,9.245 -4.71,12.56c-3.082,3.314 -7.036,5 -11.862,5c-4.826,0 -8.838,-1.686 -11.978,-5c-3.082,-3.315 -4.652,-7.502 -4.652,-12.56c0,-5.001 1.57,-9.13 4.652,-12.444c3.14,-3.315 7.152,-5.001 11.978,-5.001Z" style="fill:#fff;fill-rule:nonzero;"/><path d="M359.297,0.756l0,40.704l3.837,0l0,-18.608l14.828,0l0,-3.663l-14.828,0l0,-14.828l17.445,0l0,-3.605l-21.282,0Z" style="fill:#fff;fill-rule:nonzero;"/><path d="M412.735,0.756l0,40.704l13.897,0c4.128,0 7.443,-1.047 9.885,-3.199c2.5,-2.151 3.722,-5.058 3.722,-8.606c0,-4.477 -2.384,-7.849 -6.397,-9.419c2.675,-1.919 4.013,-4.652 4.013,-8.199c0,-6.92 -5.001,-11.281 -13.084,-11.281l-12.036,0ZM426.632,23.724c4.245,0 6.861,2.094 6.861,5.757c0,3.722 -2.616,5.873 -6.861,5.873l-7.385,0l0,-11.63l7.385,0ZM424.771,6.861c4.012,0 6.397,1.977 6.397,5.641c0,3.256 -2.443,5.408 -6.222,5.408l-5.699,0l0,-11.049l5.524,0Z" style="fill:#fff;fill-rule:nonzero;"/><path d="M453.613,0.756l0,40.704l22.852,0l0,-6.106l-16.34,0l0,-11.804l14.246,0l0,-6.047l-14.246,0l0,-10.642l16.34,0l0,-6.105l-22.852,0Z" style="fill:#fff;fill-rule:nonzero;"/><path d="M501.701,0c-3.78,0 -6.745,1.105 -8.955,3.314c-2.209,2.152 -3.314,4.943 -3.314,8.374c0,3.198 0.93,5.698 2.733,7.501c1.861,1.802 4.71,3.372 8.606,4.71c5.814,1.919 7.966,3.663 7.966,6.745c0,3.489 -2.326,5.815 -6.454,5.815c-4.594,0 -7.153,-2.559 -7.327,-7.211l-6.571,0c0.175,7.909 5.059,12.967 13.839,12.967c3.838,0 6.978,-1.046 9.42,-3.198c2.443,-2.151 3.664,-5.117 3.664,-8.838c0,-3.024 -0.873,-5.466 -2.675,-7.269c-1.745,-1.86 -4.71,-3.547 -8.955,-5c-2.907,-1.105 -4.943,-2.094 -6.047,-2.966c-1.105,-0.872 -1.628,-2.093 -1.628,-3.78c0,-3.314 2.093,-5.349 5.524,-5.349c3.488,0 5.814,2.209 5.873,5.989l6.628,0c-0.29,-7.675 -4.884,-11.804 -12.327,-11.804Z" style="fill:#fff;fill-rule:nonzero;"/><path d="M525.018,0.756l0,6.105l13.84,0l0,34.599l6.512,0l0,-34.599l13.898,0l0,-6.105l-34.25,0Z" style="fill:#fff;fill-rule:nonzero;"/><path d="M589.97,0.756l0,40.704l6.512,0l0,-17.329l13.549,0l0,-6.105l-13.549,0l0,-11.165l15.933,0l0,-6.105l-22.445,0Z" style="fill:#fff;fill-rule:nonzero;"/><rect x="625.207" y="0.756" width="6.513" height="40.704" style="fill:#fff;fill-rule:nonzero;"/><path d="M643.698,0.756l0,6.105l13.84,0l0,34.599l6.512,0l0,-34.599l13.898,0l0,-6.105l-34.25,0Z" style="fill:#fff;fill-rule:nonzero;"/></g></svg>